<svg width="128" height="128" viewBox="0 0 128 128" fill="none" xmlns="http://www.w3.org/2000/svg">
<defs>
  <linearGradient id="g" x1="0" y1="0" x2="1" y2="1">
    <stop offset="0" stop-color="#8EC5C0"/>
    <stop offset="1" stop-color="#6AA6A0"/>
  </linearGradient>
</defs>
<rect x="8" y="8" width="112" height="112" rx="24" fill="url(#g)"/>
<path d="M64 30c1.66 0 3 1.34 3 3v24h24c1.66 0 3 1.34 3 3s-1.34 3-3 3H67v24c0 1.66-1.34 3-3 3s-3-1.34-3-3V63H37c-1.66 0-3-1.34-3-3s1.34-3 3-3h24V33c0-1.66 1.34-3 3-3z" fill="white"/>
</svg>
