<?xml version="1.0" encoding="UTF-8"?>
<svg version="1.1" xmlns="http://www.w3.org/2000/svg" width="266" height="266">
<path d="M0 0 C87.78 0 175.56 0 266 0 C266 90.42 266 180.84 266 274 C178.22 274 90.44 274 0 274 C0 183.58 0 93.16 0 0 Z " fill="#F1ECE2" transform="translate(0,0)"/>
<path d="M0 0 C1.31871094 0.10248047 1.31871094 0.10248047 2.6640625 0.20703125 C17.54801706 1.99389123 29.845202 10.01645699 39.09375 21.62890625 C44.89920198 30.0787908 48.05230516 39.81228043 49 50 C49.79921875 50.07476562 50.5984375 50.14953125 51.421875 50.2265625 C66.86135127 52.0749505 79.03662932 59.48159656 88.75 71.5625 C99.03306528 86.28390429 101.13376755 100.26079692 99 118 C95.884453 133.45886875 85.47023233 144.92751502 72.78515625 153.49609375 C65.65496497 157.84125552 57.37398611 160.29033893 49 160 C49.07927734 161.9490625 49.07927734 161.9490625 49.16015625 163.9375 C49.15322954 168.99597443 48.08640489 173.24594794 46.4375 178 C46.1679248 178.78745605 45.89834961 179.57491211 45.62060547 180.38623047 C43.39110572 186.55796673 40.60262586 191.27935809 36 196 C35.41734375 196.680625 34.8346875 197.36125 34.234375 198.0625 C25.2068043 208.0762759 12.61243993 213.17223338 -0.62890625 214.3125 C-15.48366971 214.80004095 -30.18671057 209.9662311 -41.30859375 199.8359375 C-51.49848663 188.77531474 -57.60835978 176.99603896 -57.10546875 161.765625 C-57.07066406 161.18296875 -57.03585938 160.6003125 -57 160 C-57.58265625 159.97421875 -58.1653125 159.9484375 -58.765625 159.921875 C-73.7776883 158.88330458 -85.17276155 152.72398269 -95.56640625 142.0546875 C-100.13009568 136.32626834 -103.17579761 129.7285705 -106 123 C-106.391875 122.07445312 -106.78375 121.14890625 -107.1875 120.1953125 C-110.74947739 106.18715142 -108.84762014 90.61939339 -102 78 C-99.60928976 74.34873345 -96.99219627 71.1692493 -94 68 C-93.22076172 67.06994141 -93.22076172 67.06994141 -92.42578125 66.12109375 C-85.17673679 57.9590714 -73.89669688 51.83820745 -63 51 C-59.375 50.875 -59.375 50.875 -57 51 C-56.96261719 50.39414063 -56.92523438 49.78828125 -56.88671875 49.1640625 C-55.98536541 37.67622585 -52.69840708 29.39516837 -46 20 C-45.54882812 19.3503125 -45.09765625 18.700625 -44.6328125 18.03125 C-36.35542624 7.25595427 -23.84998041 2.27768459 -10.875 0.34765625 C-7.16984315 -0.10038582 -3.71949646 -0.3111103 0 0 Z " fill="#E22C1B" transform="translate(139,30)"/>
<path d="M0 0 C8.4668262 5.35575983 14.4370975 13.07123144 17.51953125 22.59375 C20.49843233 37.98861768 16.9217424 49.72591923 8.51953125 62.59375 C6.62198425 65.09324994 4.686594 67.31833411 2.51953125 69.59375 C-2.59770051 66.39548015 -7.00739767 62.63540813 -11.48046875 58.59375 C-10.4024748 56.43274818 -9.31879875 54.27494281 -8.2265625 52.12109375 C-7.79472656 51.26644531 -7.36289063 50.41179687 -6.91796875 49.53125 C-6.48355469 48.67402344 -6.04914063 47.81679687 -5.6015625 46.93359375 C-2.69050785 40.85790826 -2.68711154 35.23827404 -4.60546875 28.84375 C-7.32217299 24.13479598 -10.4746331 21.5530627 -15.35546875 19.21875 C-20.54520877 18.180802 -24.71548413 18.97081425 -29.66796875 20.71875 C-33.40218624 23.20822833 -35.87258499 25.40782476 -37.48046875 29.59375 C-39.00788427 39.7114423 -37.45702314 46.4650167 -31.48046875 54.59375 C-30.78580073 55.91271117 -30.10903115 57.24203571 -29.48046875 58.59375 C-30.72886374 59.699731 -31.97926109 60.80345201 -33.23046875 61.90625 C-33.9265625 62.52113281 -34.62265625 63.13601562 -35.33984375 63.76953125 C-36.04625 64.37152344 -36.75265625 64.97351563 -37.48046875 65.59375 C-38.145625 66.18542969 -38.81078125 66.77710937 -39.49609375 67.38671875 C-41.48046875 68.59375 -41.48046875 68.59375 -43.51953125 68.55078125 C-50.96880157 64.91518119 -55.23844406 52.7414353 -58.48046875 45.59375 C-61.5901935 36.26457575 -60.43224046 24.00362396 -56.16796875 15.28125 C-43.50410208 -4.88713025 -20.96913835 -11.08046635 0 0 Z " fill="#F1EAE1" transform="translate(155.48046875,49.40625)"/>
<path d="M0 0 C1.3359375 2.51953125 1.3359375 2.51953125 2.375 5.8125 C5.573373 14.99394931 10.47266098 23.04063181 16 31 C14.60550891 31.483059 13.20933293 31.96125517 11.8125 32.4375 C11.03519531 32.70433594 10.25789063 32.97117188 9.45703125 33.24609375 C3.50964801 35.07096651 -2.34149034 35.30473346 -8.52734375 35.62109375 C-11.94664089 35.99417792 -14.79125792 36.78998581 -18 38 C-18.04125 39.27875 -18.0825 40.5575 -18.125 41.875 C-18.14820312 42.59429687 -18.17140625 43.31359375 -18.1953125 44.0546875 C-18.18331689 46.23863645 -18.18331689 46.23863645 -16 48 C-4.32689785 49.23448048 8.67495427 48.02959599 19.20703125 42.7734375 C21 42 21 42 23.8125 41.9375 C26.79594498 43.38660185 28.19276844 45.25568541 30 48 C30 48.66 30 49.32 30 50 C29.1646875 50.41958984 29.1646875 50.41958984 28.3125 50.84765625 C16.35840274 57.12759586 8.31357783 66.19783045 2.36328125 78.33984375 C1 81 1 81 -1 82 C-12.29213748 81.55861352 -21.76167176 76.84807304 -29.4375 68.625 C-37.80264449 58.36421986 -40.60231026 48.74649519 -40.375 35.5625 C-39.12777898 23.71390033 -32.08309343 14.35118677 -23.375 6.6875 C-17.42584905 2.13225425 -7.53758591 -3.17646107 0 0 Z " fill="#F1EBE1" transform="translate(84,95)"/>
<path d="M0 0 C11.0482754 0.36827585 20.1048051 5.29318314 28.03125 12.875 C36.05058315 21.53078817 39.69961911 31.2726802 39.27734375 43.11328125 C38.08887009 55.48345077 34.27873317 64.31652011 25.125 72.8125 C16.8451079 79.52507027 9.62189749 81.9000508 -1 83 C-1.27972656 82.38253906 -1.55945313 81.76507813 -1.84765625 81.12890625 C-8.13708857 67.84222768 -17.32331815 58.37552399 -30 51 C-28.7508258 47.54074837 -27.32472205 44.85306797 -25 42 C-21.77573695 43.02232731 -18.75115194 44.11738116 -15.6875 45.5625 C-8.25241076 48.46092462 -0.32545403 48.1377336 7.5625 48.0625 C8.47580078 48.05798828 9.38910156 48.05347656 10.33007812 48.04882812 C12.55341452 48.03718762 14.77671654 48.01925847 17 48 C17 45.03 17 42.06 17 39 C11.84904472 37.3708921 6.99208794 36.56375835 1.625 36.0625 C-4.62491354 35.41387935 -10.12768023 34.34892791 -16 32 C-15.484375 31.236875 -14.96875 30.47375 -14.4375 29.6875 C-14.07398438 29.13320312 -13.71046875 28.57890625 -13.3359375 28.0078125 C-12.36517361 26.54882817 -11.36649948 25.10829547 -10.3515625 23.6796875 C-5.22879395 16.18568111 -2.52611998 8.62605946 0 0 Z " fill="#F1EBE1" transform="translate(186,94)"/>
<path d="M0 0 C2.0625 0.6875 2.0625 0.6875 4 2 C4.82421875 3.78515625 4.82421875 3.78515625 5 6 C3.671875 8.296875 3.671875 8.296875 1.75 10.75 C-3.63408238 18.0217288 -6.75034369 25.84580699 -6 35 C-4.10019943 41.3290499 -1.51235924 45.3618429 4 49 C10.63276803 52.0280028 16.55577991 51.744077 23.25 49.3125 C28.30436146 47.11090697 30.53964534 44.55562066 33.25 39.8125 C35.69219513 30.65426827 33.30978727 23.22072533 29 15 C27.38837117 12.60247576 25.74534561 10.29116716 23.94140625 8.03515625 C23 6 23 6 23.65234375 3.30859375 C25 1 25 1 28 0 C37.22171988 4.83198466 46.750792 13.33176156 51 23 C54.21538946 34.34645285 54.19566975 45.55235129 48.4375 56 C42.61004964 65.21616238 34.27191277 71.48705168 23.75 74.25 C12.71743744 76.30563986 3.06963959 75.13308838 -7 70 C-15.78783571 63.8848102 -21.61673185 56.14980446 -25 46 C-26.10928555 32.30945043 -24.58299048 22.70251189 -15.75 11.6875 C-11.30711673 6.93649731 -5.82158539 2.91079269 0 0 Z " fill="#F1EBE1" transform="translate(121,155)"/>
<path d="M0 0 C3.89917968 1.61537444 6.71293772 4.27924873 9.75 7.125 C10.25660156 7.59292969 10.76320312 8.06085938 11.28515625 8.54296875 C12.52719141 9.69126541 13.76411494 10.84508672 15 12 C13.44301719 16.90543378 10.56676327 20.37950236 7.375 24.3125 C6.6015625 25.28026367 6.6015625 25.28026367 5.8125 26.26757812 C4.54705818 27.8493804 3.27425738 29.42529063 2 31 C-1.42970814 29.85676395 -2.02407437 29.00742535 -4.13671875 26.18359375 C-4.71357422 25.41982422 -5.29042969 24.65605469 -5.88476562 23.86914062 C-6.47966797 23.06669922 -7.07457031 22.26425781 -7.6875 21.4375 C-8.29400391 20.63119141 -8.90050781 19.82488281 -9.52539062 18.99414062 C-11.02336118 17.00077824 -12.51452652 15.00268287 -14 13 C-10.82222895 9.77707412 -7.58412265 6.67855577 -4.1875 3.6875 C-3.39730469 2.99011719 -2.60710937 2.29273437 -1.79296875 1.57421875 C-1.20128906 1.05472656 -0.60960937 0.53523438 0 0 Z " fill="#F1EAE2" transform="translate(134,117)"/>
<path d="M0 0 C0.66 0 1.32 0 2 0 C6.2560781 5.28150624 8.68920933 10.28304395 8.50390625 17.08984375 C7.85646493 19.54409804 7.03307913 20.49487308 5 22 C3.0625 22.3984375 3.0625 22.3984375 1 22.375 C0.319375 22.38273437 -0.36125 22.39046875 -1.0625 22.3984375 C-3.59658545 21.87731509 -4.46662224 21.06470014 -6 19 C-7.44374341 13.52720521 -5.88822541 9.19376085 -3.125 4.4375 C-1.5078125 1.87109375 -1.5078125 1.87109375 0 0 Z " fill="#F1E9E0" transform="translate(134,171)"/>
<path d="M0 0 C2.375 0.75 2.375 0.75 3.375 1.75 C3.82062911 5.97490676 4.05136067 9.59455052 1.875 13.3125 C1.38 13.786875 0.885 14.26125 0.375 14.75 C-1.99310318 13.80275873 -3.37707953 13.09708866 -4.875 11 C-5.85016966 8.07449103 -5.95100345 5.81443238 -5.625 2.75 C-3.92079816 -0.03053984 -3.27136899 -0.31155895 0 0 Z " fill="#F1EAE3" transform="translate(135.625,81.25)"/>
<path d="M0 0 C1.25425781 0.10183594 2.50851563 0.20367187 3.80078125 0.30859375 C5.22970703 0.43427734 5.22970703 0.43427734 6.6875 0.5625 C6.6875 0.8925 6.6875 1.2225 6.6875 1.5625 C-2.2225 2.5525 -2.2225 2.5525 -11.3125 3.5625 C-11.3125 6.2025 -11.3125 8.8425 -11.3125 11.5625 C-7.0225 11.8925 -2.7325 12.2225 1.6875 12.5625 C1.6875 12.8925 1.6875 13.2225 1.6875 13.5625 C-0.41603495 13.6435206 -2.52045952 13.70169907 -4.625 13.75 C-6.38263672 13.80220703 -6.38263672 13.80220703 -8.17578125 13.85546875 C-11.3125 13.5625 -11.3125 13.5625 -13.2109375 12.3046875 C-15.24057135 9.09469921 -14.60761215 6.28091315 -14.3125 2.5625 C-10.31385612 -1.43614388 -5.31003527 -0.44663848 0 0 Z " fill="#E33527" transform="translate(79.3125,130.4375)"/>
<path d="M0 0 C4.25366712 6.38050068 3.59181315 15.57725878 3 23 C2.34 23.99 1.68 24.98 1 26 C0 25 0 25 -0.11352539 22.59155273 C-0.10828857 21.54942627 -0.10305176 20.5072998 -0.09765625 19.43359375 C-0.09443359 18.30888672 -0.09121094 17.18417969 -0.08789062 16.02539062 C-0.07951172 14.84138672 -0.07113281 13.65738281 -0.0625 12.4375 C-0.05798828 11.24962891 -0.05347656 10.06175781 -0.04882812 8.83789062 C-0.03699675 5.89187774 -0.02051287 2.94596319 0 0 Z " fill="#F0DCD6" transform="translate(238,123)"/>
<path d="M0 0 C0.66 0 1.32 0 2 0 C1.67 6.27 1.34 12.54 1 19 C-1 17 -1 17 -1.23046875 13.84765625 C-1.21628906 12.59855469 -1.20210937 11.34945312 -1.1875 10.0625 C-1.18105469 8.81597656 -1.17460938 7.56945312 -1.16796875 6.28515625 C-1 3 -1 3 0 0 Z " fill="#F0CDC6" transform="translate(45,124)"/>
<path d="M0 0 C0.57105469 0.13277344 1.14210938 0.26554688 1.73046875 0.40234375 C8.79328805 1.94066846 15.79139345 2.57064726 23 3 C23 3.33 23 3.66 23 4 C20.79317093 4.22370596 18.58440027 4.42830391 16.375 4.625 C14.53035156 4.79902344 14.53035156 4.79902344 12.6484375 4.9765625 C8.075748 5.00593738 4.63633956 4.41816095 1.125 1.375 C0.75375 0.92125 0.3825 0.4675 0 0 Z " fill="#E2150B" transform="translate(118,227)"/>
<path d="M0 0 C1.46015291 0.28241641 2.91809793 0.57626614 4.375 0.875 C5.18710938 1.03742188 5.99921875 1.19984375 6.8359375 1.3671875 C9 2 9 2 11 4 C13.57061311 4.64767793 13.57061311 4.64767793 16 5 C15.67 5.66 15.34 6.32 15 7 C8.94696161 6.6216851 4.81617877 4.70282835 0 1 C0 0.67 0 0.34 0 0 Z " fill="#F0DCD6" transform="translate(63,169)"/>
<path d="M0 0 C2.34926671 4.5178206 4.38964228 9.16892683 6 14 C5.34 14 4.68 14 4 14 C1.00635496 10.82492192 -0.6624191 8.38855165 -1 4 C-0.5625 1.6875 -0.5625 1.6875 0 0 Z " fill="#F1DFD8" transform="translate(83,204)"/>
<path d="M0 0 C2.45823172 3.68734758 3.01242616 6.69699971 4 11 C3.01 11 2.02 11 1 11 C-0.98362069 8.08291076 -0.9876191 6.87619096 -0.625 3.25 C-0.41875 2.1775 -0.2125 1.105 0 0 Z " fill="#F0DBD4" transform="translate(83,95)"/>
<path d="M0 0 C0.66 0 1.32 0 2 0 C2.99 4.95 3.98 9.9 5 15 C1.11817249 11.11817249 0.07729078 8.08685095 -0.125 2.625 C-0.08375 1.75875 -0.0425 0.8925 0 0 Z " fill="#E31C13" transform="translate(114,184)"/>
<path d="M0 0 C1.32 0.66 2.64 1.32 4 2 C3.01 2.66 2.02 3.32 1 4 C-0.19232613 6.05003955 -0.19232613 6.05003955 -1 8 C-1.66 6.68 -2.32 5.36 -3 4 C-2.01 2.68 -1.02 1.36 0 0 Z " fill="#F1E0DA" transform="translate(147,155)"/>
<path d="M0 0 C0.99 0.66 1.98 1.32 3 2 C-0.465 4.97 -0.465 4.97 -4 8 C-3.50168276 4.31245243 -2.89932357 2.39509338 0 0 Z " fill="#E33126" transform="translate(124,70)"/>
<path d="M0 0 C1.48199902 0.44909061 2.96055236 0.90956564 4.4375 1.375 C5.26121094 1.63023437 6.08492188 1.88546875 6.93359375 2.1484375 C9 3 9 3 10 5 C8.375 5.75 8.375 5.75 6 6 C2.75 4.1875 2.75 4.1875 0 2 C0 1.34 0 0.68 0 0 Z " fill="#F2E0D9" transform="translate(110,220)"/>
<path d="M0 0 C1.98 0.495 1.98 0.495 4 1 C2.68 3.64 1.36 6.28 0 9 C-0.33 9 -0.66 9 -1 9 C-1.07427838 5.65747276 -1.06546953 3.1964086 0 0 Z " fill="#EFE3DA" transform="translate(133,81)"/>
<path d="M0 0 C-2 2 -2 2 -5.375 2.25 C-8.63523324 2.02515633 -10.30632641 1.7239511 -13 0 C-8.34462607 -0.83796731 -4.62921525 -1.0161692 0 0 Z " fill="#E43629" transform="translate(82,82)"/>
<path d="M0 0 C2.62187494 1.04874998 3.79371361 1.64931313 5.25 4.125 C5.4975 4.74375 5.745 5.3625 6 6 C3 6 3 6 1.3125 4.6875 C0 3 0 3 0 0 Z " fill="#E43D30" transform="translate(96,225)"/>
<path d="M0 0 C0.99 0.33 1.98 0.66 3 1 C2.41789544 5.19115285 1.71843438 6.37542083 -1 10 C-0.67 6.7 -0.34 3.4 0 0 Z " fill="#F0D6D0" transform="translate(170,200)"/>
<path d="M0 0 C0.33 0.99 0.66 1.98 1 3 C-0.32 4.32 -1.64 5.64 -3 7 C-3.99 6.67 -4.98 6.34 -6 6 C-4.6875 4 -4.6875 4 -3 2 C-2.01 2 -1.02 2 0 2 C0 1.34 0 0.68 0 0 Z " fill="#E33328" transform="translate(127,106)"/>
<path d="M0 0 C0.33 0 0.66 0 1 0 C0.67 2.97 0.34 5.94 0 9 C-0.66 9 -1.32 9 -2 9 C-1.125 1.125 -1.125 1.125 0 0 Z " fill="#E12013" transform="translate(185,200)"/>
<path d="M0 0 C0.66 0.99 1.32 1.98 2 3 C1.125 6.1875 1.125 6.1875 0 9 C-1.125 7.3125 -1.125 7.3125 -2 5 C-1.125 2.25 -1.125 2.25 0 0 Z " fill="#F1E3DA" transform="translate(236,151)"/>
<path d="M0 0 C-1.14453125 1.51953125 -1.14453125 1.51953125 -3 3 C-5.69921875 3.07421875 -5.69921875 3.07421875 -8.6875 2.6875 C-10.17830078 2.50767578 -10.17830078 2.50767578 -11.69921875 2.32421875 C-12.45847656 2.21722656 -13.21773438 2.11023438 -14 2 C-14 1.67 -14 1.34 -14 1 C-9.27616037 0.34843591 -4.78025483 -0.11950637 0 0 Z " fill="#E1100A" transform="translate(92,129)"/>
<path d="M0 0 C1.65 0 3.3 0 5 0 C4.67 0.99 4.34 1.98 4 3 C0.37 3 -3.26 3 -7 3 C-7 2.67 -7 2.34 -7 2 C-3.535 1.505 -3.535 1.505 0 1 C0 0.67 0 0.34 0 0 Z " fill="#EEDBD5" transform="translate(192,127)"/>
<path d="M0 0 C0.33 0 0.66 0 1 0 C0.56179109 4.55737263 0.14958831 7.57653445 -3 11 C-2.67 8.69 -2.34 6.38 -2 4 C-1.34 4 -0.68 4 0 4 C0 2.68 0 1.36 0 0 Z " fill="#E21911" transform="translate(235,149)"/>
<path d="M0 0 C4.31392226 0.4793247 6.16569547 1.7457985 9 5 C3.46153846 4.50769231 3.46153846 4.50769231 1.125 1.9375 C0.75375 1.298125 0.3825 0.65875 0 0 Z " fill="#E11F14" transform="translate(156,146)"/>
<path d="M0 0 C2.5 2.3125 2.5 2.3125 5 5 C5 5.99 5 6.98 5 8 C2.5 6.25 2.5 6.25 0 4 C0 2.68 0 1.36 0 0 Z " fill="#EFDCD5" transform="translate(116,196)"/>
<path d="M0 0 C0.99 0.66 1.98 1.32 3 2 C0.24075815 3.80411967 -0.88972103 4.0127245 -4.25 3.625 C-5.1575 3.41875 -6.065 3.2125 -7 3 C-7 2.67 -7 2.34 -7 2 C-3.6875 0.875 -3.6875 0.875 0 0 Z " fill="#E4392E" transform="translate(200,173)"/>
<path d="M0 0 C2.72426311 2.35277269 3.8141763 4.62496331 5 8 C4.01 8 3.02 8 2 8 C1.34 5.36 0.68 2.72 0 0 Z " fill="#E33629" transform="translate(120,95)"/>
<path d="M0 0 C6.52307692 0.61538462 6.52307692 0.61538462 8.9375 2.5625 C9.288125 3.036875 9.63875 3.51125 10 4 C6.39703406 4.41176754 5.21597933 4.1535853 2.1875 2 C1.465625 1.34 0.74375 0.68 0 0 Z " fill="#E11B11" transform="translate(151,34)"/>
</svg>
